<svg width="308" height="92" viewBox="0 0 308 92" fill="none" xmlns="http://www.w3.org/2000/svg">
<path d="M59.496 49.72C71.1867 50.36 79.1013 50.68 83.24 50.68C84.2213 50.68 84.9893 50.4027 85.544 49.848C86.1413 49.2507 86.44 48.4613 86.44 47.48V41.72H71.72C67.24 41.72 63.976 40.7173 61.928 38.712C59.9227 36.664 58.92 33.4 58.92 28.92V27C58.92 22.52 59.9227 19.2773 61.928 17.272C63.976 15.224 67.24 14.2 71.72 14.2H94.184V23.16H74.28C71.72 23.16 70.44 24.44 70.44 27V28.28C70.44 30.84 71.72 32.12 74.28 32.12H85.8C89.9813 32.12 93.0533 33.1013 95.016 35.064C96.9787 37.0267 97.96 40.0987 97.96 44.28V47.48C97.96 51.6613 96.9787 54.7333 95.016 56.696C93.0533 58.6587 89.9813 59.64 85.8 59.64C83.624 59.64 81.32 59.5973 78.888 59.512L73 59.256C68.648 59.0427 64.1467 58.744 59.496 58.36V49.72ZM142.755 59H131.235V40.76H115.235V59H103.715V14.2H115.235V31.8H131.235V14.2H142.755V59ZM185.985 59H150.465V14.2H185.985V23.16H161.985V31.8H180.865V40.76H161.985V50.04H185.985V59ZM216.05 14.2C220.871 14.2 224.519 15.4587 226.994 17.976C229.511 20.4507 230.77 24.0987 230.77 28.92V44.28C230.77 49.1013 229.511 52.7707 226.994 55.288C224.519 57.7627 220.871 59 216.05 59H191.09V14.2H216.05ZM219.25 28.92C219.25 25.08 217.33 23.16 213.49 23.16H202.61V50.04H213.49C217.33 50.04 219.25 48.12 219.25 44.28V28.92ZM262.113 14.2C266.934 14.2 270.582 15.4587 273.057 17.976C275.574 20.4507 276.833 24.0987 276.833 28.92V44.28C276.833 49.1013 275.574 52.7707 273.057 55.288C270.582 57.7627 266.934 59 262.113 59H237.153V14.2H262.113ZM265.312 28.92C265.312 25.08 263.393 23.16 259.553 23.16H248.673V50.04H259.553C263.393 50.04 265.312 48.12 265.312 44.28V28.92ZM304.335 59H281.295V50.04H287.055V23.16H281.295V14.2H304.335V23.16H298.575V50.04H304.335V59Z" fill="#2D9CDB"/>
<path d="M7.6326 19.6348C8.4822 19.6247 8.92648 18.6769 9.63422 18.2547C10.7036 17.6168 11.9862 17.3568 13.2205 17.3028C15.2655 17.2133 17.2774 17.4866 19.3087 17.6257C23.5356 17.9151 27.8747 18.3476 32.0691 17.5038C33.2927 17.2576 34.5421 16.8841 35.6553 16.3088C36.2237 16.0151 36.7585 15.3955 37.4051 15.2768C37.863 15.1928 37.8552 15.6811 37.6784 15.9648C37.3819 16.4408 36.797 16.8008 36.3225 17.0773C35.1004 17.7894 33.7801 18.1462 32.4027 18.4095C30.6754 18.7398 28.9102 19.054 27.1484 19.1311C24.8974 19.2296 22.5605 19.2296 20.3095 19.1311C19.5849 19.0993 18.8684 18.9678 18.1411 18.9676C16.4106 18.9669 14.3566 18.3647 12.7201 19.1428C12.083 19.4457 11.3987 19.9135 11.2188 20.6356C12.2531 20.6356 13.2027 20.3825 14.2213 20.302C14.2213 20.6811 14.2793 21.12 14.0998 21.4683C13.8504 21.9522 13.2701 22.1118 12.8035 22.3099C12.3141 22.5177 11.864 22.7822 11.469 23.1376H14.2213C14.385 23.7499 14.5634 24.3367 14.6241 24.9724C14.7805 26.6083 14.2309 28.114 13.2377 29.3927C12.9746 29.7314 12.7251 30.092 12.3861 30.3609C11.5059 31.0592 10.339 31.1516 9.58985 32.0618C9.14124 32.6069 8.73407 33.2674 8.41432 33.8963C8.18271 34.352 8.03776 34.9201 7.68347 35.3018C7.39841 35.6089 6.92336 35.624 6.54839 35.4813C5.10097 34.9309 5.04717 33.4334 5.04717 32.1449C5.04717 31.0895 5.18854 29.9213 4.9325 28.8923C4.77462 28.2579 4.29798 27.7645 4.16229 27.1408C4.0346 26.5534 4.16321 25.9038 4.12234 25.306C4.06163 24.4201 3.8869 23.5242 3.87956 22.6372C2.85965 22.6372 1.59129 22.7722 0.71041 22.1535C0.386231 21.9257 -0.375468 21.1903 0.222349 20.8502C0.443028 20.7246 0.717251 20.7262 0.960531 20.6806C1.63174 20.5548 2.27768 20.4688 2.96215 20.4688C3.29701 20.4688 3.89966 20.5825 4.16621 20.3351C4.36237 20.1529 4.40374 19.7986 4.46337 19.5514C4.55945 19.1533 4.67637 18.7456 4.87212 18.3838C5.53123 17.1653 6.84179 16.2989 8.13301 15.8605C9.40028 15.4303 10.5757 15.4507 11.886 15.3777C12.1428 15.3634 12.3818 15.2573 12.6367 15.2461C13.6467 15.2019 14.7247 15.4777 15.7225 15.6074C18.0585 15.911 20.4516 16.2153 22.8116 16.2153C24.8073 16.2153 26.6625 15.9162 28.5662 15.3324C28.9168 15.2249 29.3583 14.9839 29.7289 15.0008C29.9721 15.0119 30.1072 15.2247 29.9801 15.444C29.7523 15.837 29.049 15.9525 28.6496 16.0611C27.4549 16.3861 26.295 16.6753 25.0634 16.8131C22.6956 17.0779 20.2833 17.2891 17.8909 17.1253C16.9789 17.0628 16.047 17.0397 15.1387 16.9518C14.0078 16.8423 12.8624 16.621 11.7192 16.7299C9.86858 16.9061 8.25602 17.8039 7.6326 19.6348Z" fill="#2D9CDB"/>
<path d="M17.5573 21.8866C17.9839 21.5182 17.7951 21.2002 17.8909 20.719C18.5305 21.0337 18.57 21.8433 18.7249 22.4704C18.982 22.0926 19.0546 21.7554 19.0585 21.3028C19.7758 21.4162 19.944 22.4319 19.9759 23.0542C20.2048 22.8173 20.2004 22.3111 20.4426 22.1428C20.6234 22.0171 20.8356 22.1634 20.9289 22.3226C21.1135 22.6374 21.1282 23.115 21.1435 23.4712C21.527 23.2909 21.7555 22.9921 21.9775 22.6372L22.3111 22.7206V24.3887C22.6249 24.2361 22.8743 24.0807 23.2285 24.055C23.2853 24.5044 23.3119 24.936 23.3119 25.3895C23.5599 25.1814 23.7809 24.9696 24.0625 24.8057C24.3104 25.3367 24.3503 25.8939 24.3961 26.4737C24.4727 26.4029 24.5672 26.2969 24.6594 26.237C25.3979 25.7563 25.2594 27.2131 25.3135 27.6413C26.2337 27.6522 25.905 28.3812 25.9807 29.0591C26.6609 28.9008 26.8978 30.3185 27.1301 30.8105C28.0661 32.7935 29.2232 34.6938 30.6061 36.3984C30.9656 36.8414 31.3154 37.3326 31.7367 37.7183C32.9038 38.7872 34.3134 39.5202 35.6552 40.3351C36.266 40.7061 36.8203 41.1475 37.4067 41.5533C38.8437 42.548 40.3673 43.6504 41.4162 45.0721C42.0483 45.9288 42.429 47.0692 42.7582 48.0745C43.0422 48.9419 43.1613 49.9174 43.1613 50.8267C43.1613 51.8455 43.1544 52.8474 42.8371 53.8292C41.704 57.3357 38.3028 59 34.8212 59C33.6384 59 32.2931 58.8637 31.235 58.2897C29.8927 57.5614 28.8877 56.2153 28.2944 54.83C27.9583 54.0452 27.7335 53.1828 27.7322 52.3279C27.7307 51.4083 27.7572 50.5425 28.0445 49.6591C29.2448 45.9692 33.7352 43.9379 37.3233 45.2186C38.9498 45.7992 39.5222 47.4371 39.6727 48.9919C39.7635 49.9307 39.7498 50.8591 39.1757 51.6607C37.8142 53.562 34.8018 53.856 33.4221 51.8275C33.1229 51.3876 33.081 50.9175 32.9864 50.4097C32.0115 50.7442 32.1347 51.8475 32.5707 52.5781C33.1565 53.56 34.5996 54.2845 35.7386 54.3259C36.26 54.3448 36.83 54.1673 37.3233 54.0096C38.078 53.7684 38.8361 53.5034 39.3938 52.9084C40.9519 51.2459 40.8905 47.8372 39.531 46.0729C38.8095 45.1365 37.7142 44.5948 36.5726 44.3643C33.9244 43.8298 30.8686 44.6669 29.0916 46.7401C28.6158 47.2953 28.2383 47.9185 27.9205 48.5749C27.7578 48.9109 27.6608 49.4208 27.3041 49.6047C27.0282 49.7468 26.6969 49.7282 26.3977 49.7664C25.8032 49.8422 25.2462 49.8958 24.6463 49.9106C23.3608 49.942 22.0975 50.0327 20.8099 49.8948C20.2205 49.8318 19.6481 49.6272 19.0585 49.5757C19.6175 48.7789 20.328 48.0906 20.8202 47.2405C20.9342 47.0437 21.3078 46.5111 21.0856 46.2927C20.857 46.0678 20.5796 46.6 20.4933 46.7401C20.031 47.4899 19.4629 48.2179 18.8083 48.8109C17.212 50.257 15.4656 51.4934 13.6374 52.6262C12.3936 53.3968 10.807 54.1895 10.0512 55.4972C11.1854 55.4972 12.4323 55.5391 13.554 55.3781C14.0336 55.3092 14.4288 55.0666 14.8884 54.9711C15.4834 54.8475 15.9381 55.5676 16.5327 55.5839C17.2507 55.6037 17.5512 54.6955 17.9605 54.2739C18.1704 54.0576 18.4593 54.1355 18.7249 54.1845C19.3611 54.302 20.0782 54.5055 20.6431 54.827C20.9133 54.9809 21.3929 55.2797 21.112 55.6253C20.6646 56.1761 19.773 56.4926 19.1419 56.7706C18.4863 57.0595 17.7741 57.3242 17.0568 57.4009C16.3014 57.4818 15.5555 57.3516 14.805 57.3332C13.3374 57.2973 11.8524 57.2973 10.3848 57.3332C9.49597 57.355 8.59967 57.6029 7.71595 57.5809C7.29319 57.5703 6.89128 57.4281 6.73841 56.9971C6.33942 55.8726 7.38335 54.9375 8.11761 54.289C9.17855 53.3519 10.1262 52.2978 11.0658 51.2437C11.7872 50.4344 12.5614 49.5788 13.137 48.6583C10.9265 48.64 9.06396 46.7358 7.21555 45.766C6.55743 45.4207 5.12227 45.0777 4.48859 45.6395C4.13605 45.9522 4.15749 46.5617 4.0941 46.9903C3.97976 47.7623 3.90253 48.5429 3.97709 49.3255C4.03522 49.936 4.18934 50.5502 4.23463 51.1571C4.27466 51.6943 3.46909 51.9469 3.79853 52.5746C4.21712 53.3722 5.44294 52.9373 5.66954 53.9126C5.74619 54.2423 5.64027 54.5811 5.63218 54.9134C5.61592 55.5767 5.68105 56.2541 5.61675 56.915C5.59115 57.1783 5.55845 57.709 5.20934 57.7459C4.9533 57.7729 4.75531 57.4994 4.6096 57.3307C4.15257 56.8018 3.75491 56.2253 3.33982 55.664C2.79863 54.9324 2.05595 54.0633 1.83828 53.1619C1.57381 52.0666 1.84245 50.9258 1.94711 49.8259C2.05178 48.7267 1.99365 47.5819 1.86371 46.4899C1.76855 45.6898 1.46372 44.9358 1.28416 44.1547C1.18391 43.7184 1.08324 43.225 1.35563 42.8248C1.89282 42.0356 3.13507 42.4212 3.87951 42.5913C5.97454 43.0699 8.24638 42.987 10.3848 42.987C10.5758 44.4913 10.9788 46.0917 12.1365 47.1483C12.4509 47.4353 13.4148 48.1574 13.807 47.714C14.2959 47.1614 14.1067 46.3939 14.0618 45.7393C14.0032 44.8822 14.057 44.005 14.1522 43.1538C14.3459 41.4227 15.4101 40.0559 16.5423 38.8173C17.3875 37.8927 18.3958 37.0274 19.6423 36.732C18.9973 36.6362 18.1436 37.0497 17.5573 37.31C15.0504 38.4234 13.6764 41.0387 13.3634 43.6543C13.2761 44.3838 13.2966 45.0953 13.4014 45.8227C13.4418 46.1031 13.5475 46.3702 13.5491 46.6563C13.5509 46.9972 13.3543 47.3013 12.9714 47.1749C12.5555 47.0377 12.2988 46.5192 12.1162 46.1563C11.5683 45.0676 11.4545 43.7568 11.668 42.57C11.7865 41.9113 11.8871 41.2772 12.144 40.6518C12.6559 39.4056 13.6164 38.236 14.4952 37.2324C15.2472 36.3734 16.1846 35.5694 16.7421 34.5636C17.2017 33.7345 17.3553 32.6521 17.5186 31.7279C17.8074 30.0939 17.6457 28.5135 17.3637 26.8907C17.2956 26.4993 17.2266 25.9735 16.9886 25.6462C16.8954 25.5178 16.7016 25.3381 16.5588 25.5117C16.3469 25.7692 16.5733 26.2745 16.6149 26.5571C16.7333 27.3615 16.7232 28.1647 16.7232 28.9757C16.7232 31.247 16.1818 33.4889 15.0807 35.481C14.4974 36.5361 13.6639 37.3612 12.9502 38.3166C12.2573 39.2441 11.7488 40.2564 11.3022 41.319C11.1506 40.9472 11.324 40.5366 11.3726 40.1514C11.5416 38.8111 12.2479 37.6702 12.6459 36.3984C13.1775 34.7002 12.7847 32.9176 12.4698 31.2275C14.5391 29.7397 15.3691 27.6256 15.042 25.1393C14.9536 24.4682 14.7848 23.8018 14.6546 23.1376C14.5979 22.8484 14.4654 22.5211 14.4913 22.2238C14.5248 21.839 14.9791 21.6638 15.1956 21.385C15.4001 21.1216 15.4315 20.789 15.4722 20.4688C16.086 20.643 16.288 21.3316 16.473 21.8866C16.8447 21.4347 16.6414 21.0145 16.6398 20.4688C17.2485 20.6412 17.4985 21.2997 17.5573 21.8866Z" fill="#2D9CDB"/>
<path d="M8.38318 25.6396C8.17409 26.3503 7.56302 27.1586 6.96528 27.5938C6.7215 27.7713 6.21125 28.0079 5.97981 27.6814C5.76823 27.3831 6.00642 26.8999 6.19808 26.6549C6.70315 26.0094 7.58478 25.6463 8.38318 25.6396Z" fill="white"/>
<path d="M40.9096 37.2323C43.1393 36.5873 45.4578 36.066 47.5816 37.3279C48.0283 37.5933 48.3849 37.9506 48.7491 38.3165C49.3676 38.9378 49.9971 39.5708 50.0002 40.4849C49.5228 40.4215 49.1652 40.1151 48.7492 39.8917C48.288 39.644 47.7705 39.4711 47.248 39.4152C44.6239 39.1344 42.2667 41.3316 40.9096 43.3206C39.8278 42.7683 38.8556 41.7804 37.9071 41.0228C37.591 40.7703 37.0116 40.4663 36.8807 40.0604C36.7189 39.5587 36.9895 38.7662 36.9897 38.2331C36.9902 36.9299 36.7894 35.7248 36.1739 34.5635C35.7054 33.6795 35.0365 32.976 34.2375 32.3854C34.0245 32.228 33.4544 31.9326 33.6042 31.5873C33.7082 31.3476 34.0411 31.4281 34.2375 31.4551C34.8908 31.5449 35.5319 31.7458 36.1557 31.9568C37.0543 32.2608 38.0051 32.656 38.727 33.2849C39.8802 34.2895 40.4553 35.8146 40.9096 37.2323Z" fill="#2D9CDB"/>
<path d="M10.0512 32.8121C10.9462 34.4017 10.6939 36.5988 9.53868 37.983C9.13744 38.4638 8.798 38.9473 8.13296 38.9838C8.16065 38.4438 8.37633 37.9469 8.38283 37.3992C8.38742 37.0132 8.40644 36.6152 8.35931 36.2315C8.31578 35.8774 8.17158 35.5049 8.20086 35.1473C8.27108 34.2896 9.27781 33.1117 10.0512 32.8121Z" fill="#2D9CDB"/>
<path d="M8.4 75.52V85H4.2V75.52H0.24V72.28H12.36V75.52H8.4ZM21.1294 75.52C20.2814 75.52 19.3214 75.68 18.2494 76V81.76H21.8494C22.4894 81.76 22.8094 81.44 22.8094 80.8V76.36C22.8094 76.12 22.7294 75.92 22.5694 75.76C22.4094 75.6 22.2094 75.52 21.9694 75.52H21.1294ZM18.2494 85V89.08H14.0494V72.28H17.7694L18.0094 73.48C18.7614 72.984 19.5294 72.624 20.3134 72.4C21.1134 72.16 21.7854 72.04 22.3294 72.04H23.4094C24.4974 72.04 25.3694 72.368 26.0254 73.024C26.6814 73.68 27.0094 74.552 27.0094 75.64V81.16C27.0094 82.36 26.6654 83.304 25.9774 83.992C25.3054 84.664 24.3694 85 23.1694 85H18.2494ZM34.4466 81.88C35.2946 81.88 36.2546 81.72 37.3266 81.4V79.96H33.8466C33.6066 79.96 33.4066 80.04 33.2466 80.2C33.0866 80.36 33.0066 80.56 33.0066 80.8V81.04C33.0066 81.28 33.0866 81.48 33.2466 81.64C33.4066 81.8 33.6066 81.88 33.8466 81.88H34.4466ZM30.0066 72.52C32.9346 72.2 35.5746 72.04 37.9266 72.04C39.0146 72.04 39.8866 72.368 40.5426 73.024C41.1986 73.68 41.5266 74.552 41.5266 75.64V85H37.8066L37.5666 83.8C36.8146 84.296 36.0386 84.664 35.2386 84.904C34.4546 85.128 33.7906 85.24 33.2466 85.24H32.4066C31.3186 85.24 30.4466 84.912 29.7906 84.256C29.1346 83.6 28.8066 82.728 28.8066 81.64V80.56C28.8066 79.472 29.1346 78.6 29.7906 77.944C30.4466 77.288 31.3186 76.96 32.4066 76.96H37.3266V76C37.3266 75.76 37.2466 75.56 37.0866 75.4C36.9266 75.24 36.7266 75.16 36.4866 75.16C35.4466 75.16 34.2946 75.208 33.0306 75.304C31.7826 75.4 30.7746 75.472 30.0066 75.52V72.52ZM52.44 76.96V72.28H56.64V85H52.44V80.2H48.12V85H43.92V72.28H48.12V76.96H52.44ZM70.5572 84.76C67.5652 85.08 64.9252 85.24 62.6372 85.24C61.5492 85.24 60.6772 84.912 60.0212 84.256C59.3652 83.6 59.0372 82.728 59.0372 81.64V76.12C59.0372 74.92 59.3732 73.984 60.0452 73.312C60.7332 72.624 61.6772 72.28 62.8772 72.28H70.5572V75.52H64.1972C63.5572 75.52 63.2372 75.84 63.2372 76.48V81.16C63.2372 81.4 63.3172 81.6 63.4772 81.76C63.6372 81.92 63.8372 82 64.0772 82C65.5172 82 67.6772 81.88 70.5572 81.64V84.76ZM85.4325 72.28V85H81.2325V75.52H76.9125V85H72.7125V72.28H85.4325ZM101.03 81.4C101.03 82.6 100.686 83.544 99.9977 84.232C99.3257 84.904 98.3897 85.24 97.1897 85.24H91.6697C90.4697 85.24 89.5257 84.904 88.8377 84.232C88.1657 83.544 87.8297 82.6 87.8297 81.4V75.88C87.8297 74.68 88.1657 73.744 88.8377 73.072C89.5257 72.384 90.4697 72.04 91.6697 72.04H97.1897C98.3897 72.04 99.3257 72.384 99.9977 73.072C100.686 73.744 101.03 74.68 101.03 75.88V81.4ZM96.8297 76.24C96.8297 75.6 96.5097 75.28 95.8697 75.28H92.9897C92.3497 75.28 92.0297 75.6 92.0297 76.24V81.04C92.0297 81.68 92.3497 82 92.9897 82H95.8697C96.5097 82 96.8297 81.68 96.8297 81.04V76.24ZM110.507 75.52C109.659 75.52 108.699 75.68 107.627 76V81.76H111.227C111.867 81.76 112.187 81.44 112.187 80.8V76.36C112.187 76.12 112.107 75.92 111.947 75.76C111.787 75.6 111.587 75.52 111.347 75.52H110.507ZM107.627 85V89.08H103.427V72.28H107.147L107.387 73.48C108.139 72.984 108.907 72.624 109.691 72.4C110.491 72.16 111.163 72.04 111.707 72.04H112.787C113.875 72.04 114.747 72.368 115.403 73.024C116.059 73.68 116.387 74.552 116.387 75.64V81.16C116.387 82.36 116.043 83.304 115.355 83.992C114.683 84.664 113.747 85 112.547 85H107.627ZM125.984 75.52V85H121.784V75.52H117.824V72.28H129.944V75.52H125.984ZM140.153 76.96V72.28H144.353V85H140.153V80.2H135.833V85H131.633V72.28H135.833V76.96H140.153ZM152.031 81.88C152.879 81.88 153.839 81.72 154.911 81.4V79.96H151.431C151.191 79.96 150.991 80.04 150.831 80.2C150.671 80.36 150.591 80.56 150.591 80.8V81.04C150.591 81.28 150.671 81.48 150.831 81.64C150.991 81.8 151.191 81.88 151.431 81.88H152.031ZM147.591 72.52C150.519 72.2 153.159 72.04 155.511 72.04C156.599 72.04 157.471 72.368 158.127 73.024C158.783 73.68 159.111 74.552 159.111 75.64V85H155.391L155.151 83.8C154.399 84.296 153.623 84.664 152.823 84.904C152.039 85.128 151.375 85.24 150.831 85.24H149.991C148.903 85.24 148.031 84.912 147.375 84.256C146.719 83.6 146.391 82.728 146.391 81.64V80.56C146.391 79.472 146.719 78.6 147.375 77.944C148.031 77.288 148.903 76.96 149.991 76.96H154.911V76C154.911 75.76 154.831 75.56 154.671 75.4C154.511 75.24 154.311 75.16 154.071 75.16C153.031 75.16 151.879 75.208 150.615 75.304C149.367 75.4 148.359 75.472 147.591 75.52V72.52ZM173.984 72.28V85H169.784V81.04H167.744L165.464 85H161.024L163.424 80.8C162.752 80.56 162.224 80.152 161.84 79.576C161.456 79 161.264 78.288 161.264 77.44V75.88C161.264 74.792 161.592 73.92 162.248 73.264C162.904 72.608 163.776 72.28 164.864 72.28H173.984ZM166.304 75.28C166.064 75.28 165.864 75.36 165.704 75.52C165.544 75.68 165.464 75.88 165.464 76.12V77.2C165.464 77.44 165.544 77.64 165.704 77.8C165.864 77.96 166.064 78.04 166.304 78.04H169.784V75.28H166.304ZM190.062 80.2H188.262V85H184.062V72.28H188.262V76.96H190.182L191.502 74.32C191.982 73.296 192.734 72.6 193.758 72.232C194.126 72.104 194.478 72.04 194.814 72.04C195.358 72.04 195.854 72.08 196.302 72.16L196.902 72.28V75.52H196.062C195.518 75.52 195.118 75.76 194.862 76.24L193.662 78.64L197.262 85H192.702L190.062 80.2ZM211.653 81.4C211.653 82.6 211.309 83.544 210.621 84.232C209.949 84.904 209.013 85.24 207.813 85.24H202.293C201.093 85.24 200.149 84.904 199.461 84.232C198.789 83.544 198.453 82.6 198.453 81.4V75.88C198.453 74.68 198.789 73.744 199.461 73.072C200.149 72.384 201.093 72.04 202.293 72.04H207.813C209.013 72.04 209.949 72.384 210.621 73.072C211.309 73.744 211.653 74.68 211.653 75.88V81.4ZM207.453 76.24C207.453 75.6 207.133 75.28 206.493 75.28H203.613C202.973 75.28 202.653 75.6 202.653 76.24V81.04C202.653 81.68 202.973 82 203.613 82H206.493C207.133 82 207.453 81.68 207.453 81.04V76.24ZM223.77 82.84H220.65L218.25 78.52V85H214.05V72.28H218.49L222.21 79L225.93 72.28H230.37V85H226.17V78.52L223.77 82.84ZM245.737 72.28V85H241.537V75.52H237.217V85H233.017V72.28H245.737ZM253.414 81.88C254.262 81.88 255.222 81.72 256.294 81.4V79.96H252.814C252.574 79.96 252.374 80.04 252.214 80.2C252.054 80.36 251.974 80.56 251.974 80.8V81.04C251.974 81.28 252.054 81.48 252.214 81.64C252.374 81.8 252.574 81.88 252.814 81.88H253.414ZM248.974 72.52C251.902 72.2 254.542 72.04 256.894 72.04C257.982 72.04 258.854 72.368 259.51 73.024C260.166 73.68 260.494 74.552 260.494 75.64V85H256.774L256.534 83.8C255.782 84.296 255.006 84.664 254.206 84.904C253.422 85.128 252.758 85.24 252.214 85.24H251.374C250.286 85.24 249.414 84.912 248.758 84.256C248.102 83.6 247.774 82.728 247.774 81.64V80.56C247.774 79.472 248.102 78.6 248.758 77.944C249.414 77.288 250.286 76.96 251.374 76.96H256.294V76C256.294 75.76 256.214 75.56 256.054 75.4C255.894 75.24 255.694 75.16 255.454 75.16C254.414 75.16 253.262 75.208 251.998 75.304C250.75 75.4 249.742 75.472 248.974 75.52V72.52ZM271.407 76.96V72.28H275.607V85H271.407V80.2H267.087V85H262.887V72.28H267.087V76.96H271.407ZM286.524 72.28H290.964V85H286.764V78.04L282.684 85H278.244V72.28H282.444V79.24L286.524 72.28ZM306.082 72.28V85H301.882V81.04H299.842L297.562 85H293.122L295.522 80.8C294.85 80.56 294.322 80.152 293.938 79.576C293.554 79 293.362 78.288 293.362 77.44V75.88C293.362 74.792 293.69 73.92 294.346 73.264C295.002 72.608 295.874 72.28 296.962 72.28H306.082ZM298.402 75.28C298.162 75.28 297.962 75.36 297.802 75.52C297.642 75.68 297.562 75.88 297.562 76.12V77.2C297.562 77.44 297.642 77.64 297.802 77.8C297.962 77.96 298.162 78.04 298.402 78.04H301.882V75.28H298.402Z" fill="#2D9CDB"/>
</svg>
