<svg width="130" height="52" viewBox="0 0 130 52" fill="none" xmlns="http://www.w3.org/2000/svg">
<path fill-rule="evenodd" clip-rule="evenodd" d="M112.5 42.5001C112.5 40.5253 111.98 38.5853 110.993 36.8751C110.006 35.1649 108.585 33.7447 106.875 32.7573C105.165 31.7699 103.225 31.2501 101.25 31.2501C99.2754 31.2501 97.3354 31.7699 95.6252 32.7573C93.915 33.7447 92.4948 35.1649 91.5074 36.8751C90.52 38.5853 90.0002 40.5253 90.0002 42.5001H43.7501C43.7501 40.5253 43.2303 38.5853 42.2429 36.8751C41.2555 35.1649 39.8353 33.7447 38.1251 32.7573C36.4149 31.7699 34.4749 31.2501 32.5001 31.2501C30.5253 31.2501 28.5853 31.7699 26.8751 32.7573C25.1649 33.7447 23.7447 35.1649 22.7573 36.8751C21.7699 38.5853 21.2501 40.5253 21.2501 42.5001H5C3.67392 42.5001 2.40215 41.9733 1.46447 41.0356C0.526784 40.098 0 38.8262 0 37.5001V23.5505C0 22.8536 0.0971253 22.1602 0.288571 21.4901L5.39248 3.62639C5.69098 2.58165 6.32168 1.66257 7.18912 1.00826C8.05657 0.353939 9.11355 0 10.2001 0H123.75C124.082 0 124.4 0.131695 124.634 0.366116C124.869 0.600536 125 0.918479 125 1.25V3.75C125 4.03765 124.901 4.3165 124.719 4.53952C124.538 4.76253 124.285 4.91605 124.003 4.9742L124.003 4.9742C123.828 5.01035 123.663 5.08366 123.518 5.18918C123.374 5.2947 123.254 5.42997 123.166 5.58587C123.078 5.74176 123.025 5.91464 123.01 6.09284C122.995 6.27104 123.018 6.4504 123.079 6.61882L129.563 24.7767C129.853 25.5863 130 26.4395 130 27.2992V40.0001C130 40.6631 129.737 41.299 129.268 41.7679C128.799 42.2367 128.163 42.5001 127.5 42.5001H112.5H112.5ZM123.59 22.5001H108.625C108.128 22.5001 107.651 22.3026 107.299 21.9509C106.948 21.5993 106.75 21.1224 106.75 20.6251V6.875C106.75 6.37772 106.948 5.90081 107.299 5.54918C107.651 5.19754 108.128 5 108.625 5H118.679C119.066 5 119.443 5.11958 119.759 5.34235C120.075 5.56512 120.315 5.88018 120.445 6.24437L125.355 19.9945C125.456 20.2774 125.488 20.5805 125.447 20.8783C125.407 21.176 125.295 21.4596 125.122 21.7052C124.949 21.9508 124.72 22.1512 124.453 22.2896C124.186 22.4279 123.89 22.5001 123.59 22.5001ZM101.625 22.5001H88.486C88.1958 22.5001 87.9095 22.4327 87.6498 22.3033C87.39 22.1739 87.1639 21.9859 86.9891 21.7542C86.8143 21.5225 86.6957 21.2534 86.6426 20.9681C86.5895 20.6828 86.6034 20.389 86.6831 20.11L90.6116 6.3599C90.7236 5.96812 90.9601 5.62346 91.2854 5.37809C91.6107 5.13273 92.007 5 92.4145 5H101.625C102.123 5 102.599 5.19754 102.951 5.54918C103.303 5.90081 103.5 6.37772 103.5 6.875V20.6251C103.5 21.1224 103.303 21.5993 102.951 21.9509C102.599 22.3026 102.123 22.5001 101.625 22.5001ZM81.3359 22.5001H68.7359C68.4457 22.5001 68.1594 22.4327 67.8997 22.3033C67.6399 22.1739 67.4138 21.9859 67.239 21.7542C67.0642 21.5225 66.9456 21.2534 66.8925 20.9681C66.8394 20.6828 66.8533 20.389 66.933 20.11L70.8616 6.3599C70.9736 5.96812 71.2101 5.62346 71.5354 5.37809C71.8607 5.13273 72.257 5 72.6645 5H85.2645C85.5547 5 85.841 5.06737 86.1007 5.1968C86.3605 5.32623 86.5866 5.51419 86.7614 5.74588C86.9362 5.97758 87.0548 6.24667 87.1079 6.53199C87.1609 6.81731 87.1471 7.11105 87.0674 7.3901L83.1388 21.1402C83.0268 21.532 82.7903 21.8766 82.465 22.122C82.1397 22.3674 81.7434 22.5001 81.3359 22.5001ZM61.5859 22.5001H48.9859C48.6957 22.5001 48.4094 22.4327 48.1497 22.3033C47.8899 22.1739 47.6638 21.9859 47.489 21.7542C47.3142 21.5225 47.1956 21.2534 47.1425 20.9681C47.0895 20.6828 47.1033 20.389 47.183 20.11L51.1115 6.3599C51.2235 5.96812 51.46 5.62346 51.7853 5.37809C52.1106 5.13273 52.5069 5 52.9144 5H65.5144C65.8046 5 66.0909 5.06737 66.3506 5.1968C66.6104 5.32623 66.8365 5.51419 67.0113 5.74588C67.1861 5.97758 67.3047 6.24667 67.3578 6.53199C67.4109 6.81731 67.397 7.11105 67.3173 7.3901L63.3888 21.1402C63.2768 21.532 63.0403 21.8766 62.715 22.122C62.3897 22.3674 61.9934 22.5001 61.5859 22.5001ZM41.8358 22.5001H29.2358C28.9456 22.5001 28.6593 22.4327 28.3996 22.3033C28.1398 22.1739 27.9137 21.9859 27.7389 21.7542C27.5641 21.5225 27.4455 21.2534 27.3924 20.9681C27.3394 20.6828 27.3532 20.389 27.4329 20.11L31.3615 6.3599C31.4735 5.96812 31.71 5.62346 32.0353 5.37809C32.3606 5.13273 32.7569 5 33.1644 5H45.7644C46.0546 5 46.3409 5.06737 46.6006 5.1968C46.8604 5.32623 47.0865 5.51419 47.2613 5.74588C47.4361 5.97758 47.5547 6.24667 47.6078 6.53199C47.6609 6.81731 47.647 7.11105 47.5673 7.3901L43.6387 21.1402C43.5267 21.532 43.2902 21.8766 42.9649 22.122C42.6396 22.3674 42.2433 22.5001 41.8358 22.5001ZM22.0857 22.5001H9.4858C9.19559 22.5001 8.90933 22.4327 8.64958 22.3033C8.38982 22.1739 8.16366 21.9859 7.9889 21.7542C7.81413 21.5225 7.69553 21.2534 7.64244 20.9681C7.58935 20.6828 7.60321 20.389 7.68294 20.11L11.6114 6.3599C11.7234 5.96812 11.9599 5.62346 12.2852 5.37809C12.6105 5.13273 13.0068 5 13.4143 5H26.0143C26.3045 5 26.5908 5.06737 26.8505 5.1968C27.1103 5.32623 27.3364 5.51419 27.5112 5.74588C27.686 5.97758 27.8046 6.24667 27.8577 6.53199C27.9107 6.81731 27.8969 7.11105 27.8172 7.3901L23.8886 21.1402C23.7766 21.532 23.5401 21.8766 23.2148 22.122C22.8895 22.3674 22.4932 22.5001 22.0857 22.5001ZM23.7501 42.5001C23.7501 40.9642 24.1544 39.4553 24.9224 38.1251C25.6904 36.7949 26.7949 35.6903 28.1251 34.9224C29.4553 34.1544 30.9642 33.7501 32.5001 33.7501C34.036 33.7501 35.5449 34.1544 36.8751 34.9224C38.2053 35.6903 39.3099 36.7949 40.0778 38.1251C40.8458 39.4553 41.2501 40.9642 41.2501 42.5001C41.2501 44.036 40.8458 45.5449 40.0778 46.8751C39.3099 48.2053 38.2053 49.3098 36.8751 50.0778C35.5449 50.8458 34.036 51.2501 32.5001 51.2501C30.9642 51.2501 29.4553 50.8458 28.1251 50.0778C26.7949 49.3098 25.6904 48.2053 24.9224 46.8751C24.1544 45.5449 23.7501 44.036 23.7501 42.5001ZM92.5002 42.5001C92.5002 40.9642 92.9045 39.4553 93.6725 38.1251C94.4405 36.7949 95.545 35.6903 96.8752 34.9224C98.2054 34.1544 99.7143 33.7501 101.25 33.7501C102.786 33.7501 104.295 34.1544 105.625 34.9224C106.955 35.6903 108.06 36.7949 108.828 38.1251C109.596 39.4553 110 40.9642 110 42.5001C110 44.036 109.596 45.5449 108.828 46.8751C108.06 48.2053 106.955 49.3098 105.625 50.0778C104.295 50.8458 102.786 51.2501 101.25 51.2501C99.7143 51.2501 98.2054 50.8458 96.8752 50.0778C95.545 49.3098 94.4405 48.2053 93.6725 46.8751C92.9045 45.5449 92.5002 44.036 92.5002 42.5001Z" fill="#2D9CDB"/>
</svg>
