<?xml version="1.0" encoding="utf-8"?>
<!-- Generator: Adobe Illustrator 18.0.0, SVG Export Plug-In . SVG Version: 6.00 Build 0)  -->
<!DOCTYPE svg PUBLIC "-//W3C//DTD SVG 1.1//EN" "http://www.w3.org/Graphics/SVG/1.1/DTD/svg11.dtd">
<svg version="1.1" id="Layer_1" xmlns="http://www.w3.org/2000/svg" xmlns:xlink="http://www.w3.org/1999/xlink" x="0px" y="0px"
	 width="1400px" height="980px" viewBox="0 0 1400 980" enable-background="new 0 0 1400 980" xml:space="preserve">
<g>
	<g>
		<path fill="#6BCBDD" d="M1039.5,447.4h-32.1c-14.7,0-26.6-11.9-26.6-26.6v0c0-14.7,11.9-26.6,26.6-26.6h19.5
			c14.8,0,27.3-11.6,27.7-26.4c0.4-15.4-11.9-27.9-27.2-27.9h-94.2c-28.5,0-51.5-23.1-51.5-51.5l0,0c0-28.5,23.1-51.5,51.5-51.5
			h113.3c20.8,0,37.7-16.9,37.7-37.7v0c0-20.8-16.9-37.7-37.7-37.7H826.8l0,0c0-43.1-34.9-78-78-78H583c-43.1,0-78,34.9-78,78l0,0
			H363.1c-20.8,0-37.7,16.9-37.7,37.7v0c0,20.8,16.9,37.7,37.7,37.7h145.2c28.5,0,51.5,23.1,51.5,51.5l0,0
			c0,28.5-23.1,51.5-51.5,51.5H316.8c-14.8,0-27.3,11.6-27.7,26.4c-0.4,15.4,11.9,27.9,27.2,27.9h122.9c32.2,0,58.2,26.1,58.2,58.2
			v0c0,32.2-26.1,58.2-58.2,58.2h-68.3c-12.5,0-22.6,10.1-22.6,22.6v0c0,12.5,10.1,22.6,22.6,22.6h94.9c17.5,0,31.7,14.2,31.7,31.7
			v0c0,17.5-14.2,31.7-31.7,31.7h-85.6c-25.8,0-46.6,20.9-46.6,46.6v0c0,25.8,20.9,46.6,46.6,46.6h135.5v0
			c0,24.8,20.1,44.9,44.9,44.9h189.8c24.8,0,44.9-20.1,44.9-44.9v0h139.2c7.9,0,14.3-6.4,14.3-14.3h92.5c11.2,0,20.3-9.1,20.3-20.3
			v0c0-11.2-9.1-20.3-20.3-20.3h-92.5l0,0c0-21.3-17.2-38.5-38.5-38.5h-37.7c-7.9,0-14.2-6.4-14.2-14.2v0c0-7.9,6.4-14.2,14.2-14.2
			h167.1c39.6,0,71.7-32.1,71.7-71.7v0C1111.2,479.5,1079.1,447.4,1039.5,447.4z"/>
	</g>
	<g>
		<g>
			<g>
				<path fill="#404649" d="M559.3,249.7h-16c0-72.2,58.7-130.9,130.9-130.9v16C610.9,134.8,559.3,186.3,559.3,249.7z"/>
			</g>
			<g>
				<path fill="#404649" d="M602.3,249.7h-16c0-48.5,39.4-87.9,87.9-87.9v16C634.6,177.8,602.3,210,602.3,249.7z"/>
			</g>
			<g>
				<path fill="#404649" d="M645.4,249.7h-16c0-24.7,20.1-44.9,44.9-44.9v16C658.3,220.8,645.4,233.8,645.4,249.7z"/>
			</g>
		</g>
		<g>
			<g>
				<g>
					<path fill="#EEBA3A" d="M709.7,651.4V195.9c0-9.8,7.9-17.7,17.7-17.7h208.6c9.8,0,17.7,7.9,17.7,17.7v455.5
						c0,9.8-7.9,17.7-17.7,17.7H727.4C717.7,669.1,709.7,661.2,709.7,651.4z"/>
				</g>
				<g>
					<path fill="#C2C2C4" d="M936,666H727.5c-8.1,0-14.7-6.6-14.7-14.7V196c0-8.1,6.6-14.7,14.7-14.7H936c8.1,0,14.7,6.6,14.7,14.7
						v455.3C950.7,659.4,944.1,666,936,666z"/>
				</g>
				<g>
					<path fill="#404649" d="M854.6,648c0-0.9,0-1.8-0.2-2.7c-1.2-10.6-9.8-19.1-20.5-20.1c-13.7-1.3-25.2,9.4-25.2,22.8
						c0,0,0,0,0,0.1c0,3.3,2.8,6,6.2,6h33.5C851.8,654,854.6,651.4,854.6,648z"/>
				</g>
				<g>
					<rect x="722.2" y="225" fill="#EAEAEA" width="219" height="390.9"/>
				</g>
				<g>
					<rect x="724.3" y="227.1" fill="#404649" width="214.9" height="386.8"/>
				</g>
				<g>
					<rect x="724.3" y="227.1" fill="#4E5254" width="108" height="386.8"/>
				</g>
				<g>
					<g>
						<path fill="#81C678" d="M795.8,453.2v-46.7h11.7c7.8,0,11.7,4.4,11.7,13.3c0,3.8-1,6.7-3,8.7c-2,2-4.9,3-8.7,3h-5v21.7H795.8z
							 M802.5,426.5h1.7c1.5,0,2.7-0.1,3.7-0.3c1-0.2,1.8-0.5,2.6-1c0.7-0.5,1.3-1.2,1.6-2c0.3-0.9,0.5-2,0.5-3.4
							c0-1.7-0.1-3-0.4-4.1c-0.2-1-0.7-1.9-1.3-2.5c-0.7-0.7-1.5-1.1-2.5-1.4c-1-0.3-2.4-0.4-4.1-0.4h-1.7V426.5z"/>
						<path fill="#81C678" d="M818.4,453.2l10-46.7h6.7l10,46.7h-6.7l-2.5-11.7h-8.3l-2.5,11.7H818.4z M828.5,436.5h6.7l-3.3-20
							L828.5,436.5z"/>
						<path fill="#81C678" d="M853.5,453.2v-15l-10-31.7h6.7l6.7,23.3l6.7-23.3h6.7l-10,31.7v15H853.5z"/>
					</g>
					<g>
						<path fill="#81C678" d="M831.7,491.6c-34.9,0-63.2-28.4-63.2-63.2s28.4-63.2,63.2-63.2s63.2,28.4,63.2,63.2
							S866.6,491.6,831.7,491.6z M831.7,368.2c-33.2,0-60.2,27-60.2,60.2s27,60.2,60.2,60.2s60.2-27,60.2-60.2
							S864.9,368.2,831.7,368.2z"/>
					</g>
					<g>
						<path fill="#81C678" d="M831.7,501.6c-40.4,0-73.2-32.8-73.2-73.2s32.8-73.2,73.2-73.2s73.2,32.8,73.2,73.2
							S872.1,501.6,831.7,501.6z M831.7,356.2c-39.8,0-72.2,32.4-72.2,72.2s32.4,72.2,72.2,72.2s72.2-32.4,72.2-72.2
							S871.5,356.2,831.7,356.2z"/>
					</g>
				</g>
				<g>
					<g>
						<circle fill="#404649" cx="831.7" cy="203.3" r="8.2"/>
					</g>
					<g>
						<path fill="#404649" d="M831.7,223.5c-11.2,0-20.2-9.1-20.2-20.2c0-1.7,1.3-3,3-3s3,1.3,3,3c0,7.8,6.4,14.2,14.2,14.2
							s14.2-6.4,14.2-14.2c0-1.7,1.3-3,3-3s3,1.3,3,3C852,214.4,842.9,223.5,831.7,223.5z"/>
					</g>
				</g>
			</g>
			<g>
				<g>
					<g>
						<path fill="#F9CAA5" d="M886.9,858.2c4.5,8.2,7,17.4,7.3,26.8l2.2,72.1h129.1l-4.6-60.6c-0.6-7.9,0.8-15.9,4-23.2l21-48
							l12.5-116.7c1.3-11.7-2.9-23.4-11.3-31.6l-39.1-38.6c-5.2-5.1-11.6-8.8-18.7-10.6l-12.5-3.3l-4.3-8.9
							c-3.5-7.2-9.5-12.8-16.9-15.7l-20.6-8l-8.5-13.9c-2.8-4.5-6.9-8-11.8-9.9l-11.4-4.4l-19.3-92c-1.8-8.4-9.9-13.9-18.3-12.4
							l-0.3,0.1c-7.7,1.4-13.2,8.1-13.1,15.9l2.6,159.9l-18,32.4l-7.4,51.6l18.4,67.9L886.9,858.2z"/>
					</g>
					<g>
						<path fill="#F3DBCB" d="M856,473.9l4.1,161.6L844.3,660c0,0,38.4-16.8,38.4-36s-19.2-157.7-19.2-157.7S859.6,462.9,856,473.9z
							"/>
					</g>
					<g>
						<path fill="#EFB68F" d="M903.3,570.3l2.7,20.3c0,0,15-2.1,28.1,26.6c0,0,27.5-3.3,42.5,30.5c0,0,17.1-1.8,35.6,14.3
							c18.5,16.1,40.4,32.5,40.4,32.5s-44.6-53.9-58.3-59.2c-13.7-5.3-21.9-4.1-21.9-4.1s0.7-13.8-8.9-21.1
							C954,602.9,930,598,930,598S919.7,569.4,903.3,570.3z"/>
					</g>
					<g>
						<path fill="#EFB68F" d="M928.3,799.3c-6-5.1-11.1-11-14.6-17.8c-20.3-39.4-59.9-23.3-46.6,10.3c13.3,33.5,45.5,78.9,45.5,78.9
							l5.8,86.5h99.1l-3.8-77.3l2.2-5.7C981.5,856.7,951.4,831,928.3,799.3z"/>
					</g>
				</g>
				<g>
					<path fill="#F9CAA5" d="M1004.7,957.2V904c0-5.5-4.5-9.9-9.9-9.9c-5.5,0-9.9,4.5-9.9,9.9v53.1H1004.7z"/>
				</g>
			</g>
		</g>
		<g>
			<g>
				<g>
					<path fill="#E2A025" d="M634,450.9H415.9l13.1-94.9c0.9-6.4,6.3-11.2,12.8-11.2h166.5c6.5,0,11.9,4.8,12.8,11.2L634,450.9z"/>
				</g>
				<g>
					<path fill="#DF8727" d="M433.2,391.4h183.1c0.5,0,1,0,1.5,0.1l-3.2-23.1c-0.8-6-5.9-10.4-12-10.4H447.2c-6,0-11.2,4.5-12,10.4
						l-3.2,23C432.4,391.4,432.8,391.4,433.2,391.4z"/>
				</g>
				<g>
					<path fill="#E2A025" d="M656.5,789h-16.4V464h16.4c7.5,0,13.5,6.1,13.5,13.5v297.9C670,782.9,664,789,656.5,789z"/>
				</g>
				<g>
					<path fill="#EEBA3A" d="M632.5,814.2c-73.6,21.6-145.3,21.1-215.2,0.1c-8.4-2.5-14.1-10.3-14.1-19l0-335.6
						c0-6.9,5.6-12.5,12.5-12.5h218.6c6.9,0,12.5,5.6,12.5,12.5l0,335.5C646.7,803.9,640.9,811.7,632.5,814.2z"/>
				</g>
				<g>
					<path fill="#404649" d="M608.8,433.3H441.1c-2.9,0-5.2-2.3-5.2-5.2v-0.3c0-2.9,2.3-5.2,5.2-5.2h167.8c2.9,0,5.2,2.3,5.2,5.2
						v0.3C614.1,430.9,611.7,433.3,608.8,433.3z"/>
				</g>
				<g>
					<g>
						<path fill="#DF8727" d="M457.6,628.5h-23.4c-5.1,0-9.2,4.1-9.2,9.2V650c0,5.1,4.1,9.2,9.2,9.2h23.4c5.1,0,9.2-4.1,9.2-9.2
							v-12.3C466.7,632.6,462.6,628.5,457.6,628.5z"/>
					</g>
					<g>
						<path fill="#DF8727" d="M510.3,628.5h-23.4c-5.1,0-9.2,4.1-9.2,9.2V650c0,5.1,4.1,9.2,9.2,9.2h23.4c5.1,0,9.2-4.1,9.2-9.2
							v-12.3C519.5,632.6,515.3,628.5,510.3,628.5z"/>
					</g>
					<g>
						<path fill="#DF8727" d="M563,628.5h-23.4c-5.1,0-9.2,4.1-9.2,9.2V650c0,5.1,4.1,9.2,9.2,9.2H563c5.1,0,9.2-4.1,9.2-9.2v-12.3
							C572.2,632.6,568.1,628.5,563,628.5z"/>
					</g>
					<g>
						<path fill="#DF8727" d="M615.7,628.5h-23.4c-5.1,0-9.2,4.1-9.2,9.2V650c0,5.1,4.1,9.2,9.2,9.2h23.4c5.1,0,9.2-4.1,9.2-9.2
							v-12.3C624.9,632.6,620.8,628.5,615.7,628.5z"/>
					</g>
					<g>
						<path fill="#DF8727" d="M457.6,673.4h-23.4c-5.1,0-9.2,4.1-9.2,9.2v12.3c0,5.1,4.1,9.2,9.2,9.2h23.4c5.1,0,9.2-4.1,9.2-9.2
							v-12.3C466.7,677.5,462.6,673.4,457.6,673.4z"/>
					</g>
					<g>
						<path fill="#DF8727" d="M510.3,673.4h-23.4c-5.1,0-9.2,4.1-9.2,9.2v12.3c0,5.1,4.1,9.2,9.2,9.2h23.4c5.1,0,9.2-4.1,9.2-9.2
							v-12.3C519.5,677.5,515.3,673.4,510.3,673.4z"/>
					</g>
					<g>
						<path fill="#DF8727" d="M563,673.4h-23.4c-5.1,0-9.2,4.1-9.2,9.2v12.3c0,5.1,4.1,9.2,9.2,9.2H563c5.1,0,9.2-4.1,9.2-9.2v-12.3
							C572.2,677.5,568.1,673.4,563,673.4z"/>
					</g>
					<g>
						<path fill="#DF8727" d="M615.7,673.4h-23.4c-5.1,0-9.2,4.1-9.2,9.2v12.3c0,5.1,4.1,9.2,9.2,9.2h23.4c5.1,0,9.2-4.1,9.2-9.2
							v-12.3C624.9,677.5,620.8,673.4,615.7,673.4z"/>
					</g>
					<g>
						<path fill="#DF8727" d="M457.6,718.2h-23.4c-5.1,0-9.2,4.1-9.2,9.2v12.3c0,5.1,4.1,9.2,9.2,9.2h23.4c5.1,0,9.2-4.1,9.2-9.2
							v-12.3C466.7,722.4,462.6,718.2,457.6,718.2z"/>
					</g>
					<g>
						<path fill="#DF8727" d="M510.3,718.2h-23.4c-5.1,0-9.2,4.1-9.2,9.2v12.3c0,5.1,4.1,9.2,9.2,9.2h23.4c5.1,0,9.2-4.1,9.2-9.2
							v-12.3C519.5,722.4,515.3,718.2,510.3,718.2z"/>
					</g>
					<g>
						<path fill="#DF8727" d="M563,718.2h-23.4c-5.1,0-9.2,4.1-9.2,9.2v12.3c0,5.1,4.1,9.2,9.2,9.2H563c5.1,0,9.2-4.1,9.2-9.2v-12.3
							C572.2,722.4,568.1,718.2,563,718.2z"/>
					</g>
					<g>
						<path fill="#DF8727" d="M615.7,718.2h-23.4c-5.1,0-9.2,4.1-9.2,9.2v12.3c0,5.1,4.1,9.2,9.2,9.2h23.4c5.1,0,9.2-4.1,9.2-9.2
							v-12.3C624.9,722.4,620.8,718.2,615.7,718.2z"/>
					</g>
					<g>
						<path fill="#DF8727" d="M457.6,763.1h-23.4c-5.1,0-9.2,4.1-9.2,9.2v12.3c0,5.1,4.1,9.2,9.2,9.2h23.4c5.1,0,9.2-4.1,9.2-9.2
							v-12.3C466.7,767.2,462.6,763.1,457.6,763.1z"/>
					</g>
					<g>
						<path fill="#DF8727" d="M510.3,763.1h-23.4c-5.1,0-9.2,4.1-9.2,9.2v12.3c0,5.1,4.1,9.2,9.2,9.2h23.4c5.1,0,9.2-4.1,9.2-9.2
							v-12.3C519.5,767.2,515.3,763.1,510.3,763.1z"/>
					</g>
					<g>
						<path fill="#DF8727" d="M563,763.1h-23.4c-5.1,0-9.2,4.1-9.2,9.2v12.3c0,5.1,4.1,9.2,9.2,9.2H563c5.1,0,9.2-4.1,9.2-9.2v-12.3
							C572.2,767.2,568.1,763.1,563,763.1z"/>
					</g>
					<g>
						<path fill="#DF8727" d="M615.7,763.1h-23.4c-5.1,0-9.2,4.1-9.2,9.2v12.3c0,5.1,4.1,9.2,9.2,9.2h23.4c5.1,0,9.2-4.1,9.2-9.2
							v-12.3C624.9,767.2,620.8,763.1,615.7,763.1z"/>
					</g>
				</g>
				<g>
					<g>
						<g>
							<g>
								<path fill="#BDC1C1" d="M457.7,655.1H434c-3.8,0-6.9-3.1-6.9-6.9v-10.7c0-3.8,3.1-6.9,6.9-6.9h23.8c3.8,0,6.9,3.1,6.9,6.9
									v10.7C464.7,652,461.6,655.1,457.7,655.1z"/>
							</g>
							<g>
								<path fill="#BDC1C1" d="M510.5,655.1h-23.8c-3.8,0-6.9-3.1-6.9-6.9v-10.7c0-3.8,3.1-6.9,6.9-6.9h23.8c3.8,0,6.9,3.1,6.9,6.9
									v10.7C517.4,652,514.3,655.1,510.5,655.1z"/>
							</g>
							<g>
								<path fill="#BDC1C1" d="M563.2,655.1h-23.8c-3.8,0-6.9-3.1-6.9-6.9v-10.7c0-3.8,3.1-6.9,6.9-6.9h23.8c3.8,0,6.9,3.1,6.9,6.9
									v10.7C570.1,652,567,655.1,563.2,655.1z"/>
							</g>
							<g>
								<path fill="#BDC1C1" d="M615.9,655.1h-23.8c-3.8,0-6.9-3.1-6.9-6.9v-10.7c0-3.8,3.1-6.9,6.9-6.9h23.8c3.8,0,6.9,3.1,6.9,6.9
									v10.7C622.9,652,619.7,655.1,615.9,655.1z"/>
							</g>
						</g>
						<g>
							<g>
								<path fill="#BDC1C1" d="M457.7,700H434c-3.8,0-6.9-3.1-6.9-6.9v-10.7c0-3.8,3.1-6.9,6.9-6.9h23.8c3.8,0,6.9,3.1,6.9,6.9V693
									C464.7,696.9,461.6,700,457.7,700z"/>
							</g>
							<g>
								<path fill="#BDC1C1" d="M510.5,700h-23.8c-3.8,0-6.9-3.1-6.9-6.9v-10.7c0-3.8,3.1-6.9,6.9-6.9h23.8c3.8,0,6.9,3.1,6.9,6.9
									V693C517.4,696.9,514.3,700,510.5,700z"/>
							</g>
							<g>
								<path fill="#BDC1C1" d="M563.2,700h-23.8c-3.8,0-6.9-3.1-6.9-6.9v-10.7c0-3.8,3.1-6.9,6.9-6.9h23.8c3.8,0,6.9,3.1,6.9,6.9
									V693C570.1,696.9,567,700,563.2,700z"/>
							</g>
							<g>
								<path fill="#BDC1C1" d="M615.9,700h-23.8c-3.8,0-6.9-3.1-6.9-6.9v-10.7c0-3.8,3.1-6.9,6.9-6.9h23.8c3.8,0,6.9,3.1,6.9,6.9
									V693C622.9,696.9,619.7,700,615.9,700z"/>
							</g>
						</g>
						<g>
							<g>
								<path fill="#BDC1C1" d="M457.7,744.8H434c-3.8,0-6.9-3.1-6.9-6.9v-10.7c0-3.8,3.1-6.9,6.9-6.9h23.8c3.8,0,6.9,3.1,6.9,6.9
									v10.7C464.7,741.7,461.6,744.8,457.7,744.8z"/>
							</g>
							<g>
								<path fill="#BDC1C1" d="M510.5,744.8h-23.8c-3.8,0-6.9-3.1-6.9-6.9v-10.7c0-3.8,3.1-6.9,6.9-6.9h23.8c3.8,0,6.9,3.1,6.9,6.9
									v10.7C517.4,741.7,514.3,744.8,510.5,744.8z"/>
							</g>
							<g>
								<path fill="#BDC1C1" d="M563.2,744.8h-23.8c-3.8,0-6.9-3.1-6.9-6.9v-10.7c0-3.8,3.1-6.9,6.9-6.9h23.8c3.8,0,6.9,3.1,6.9,6.9
									v10.7C570.1,741.7,567,744.8,563.2,744.8z"/>
							</g>
							<g>
								<path fill="#BDC1C1" d="M615.9,744.8h-23.8c-3.8,0-6.9-3.1-6.9-6.9v-10.7c0-3.8,3.1-6.9,6.9-6.9h23.8c3.8,0,6.9,3.1,6.9,6.9
									v10.7C622.9,741.7,619.7,744.8,615.9,744.8z"/>
							</g>
						</g>
						<g>
							<g>
								<path fill="#BDC1C1" d="M457.7,789.7H434c-3.8,0-6.9-3.1-6.9-6.9v-10.7c0-3.8,3.1-6.9,6.9-6.9h23.8c3.8,0,6.9,3.1,6.9,6.9
									v10.7C464.7,786.6,461.6,789.7,457.7,789.7z"/>
							</g>
							<g>
								<path fill="#BDC1C1" d="M510.5,789.7h-23.8c-3.8,0-6.9-3.1-6.9-6.9v-10.7c0-3.8,3.1-6.9,6.9-6.9h23.8c3.8,0,6.9,3.1,6.9,6.9
									v10.7C517.4,786.6,514.3,789.7,510.5,789.7z"/>
							</g>
							<g>
								<path fill="#BDC1C1" d="M563.2,789.7h-23.8c-3.8,0-6.9-3.1-6.9-6.9v-10.7c0-3.8,3.1-6.9,6.9-6.9h23.8c3.8,0,6.9,3.1,6.9,6.9
									v10.7C570.1,786.6,567,789.7,563.2,789.7z"/>
							</g>
							<g>
								<path fill="#BDC1C1" d="M615.9,789.7h-23.8c-3.8,0-6.9-3.1-6.9-6.9v-10.7c0-3.8,3.1-6.9,6.9-6.9h23.8c3.8,0,6.9,3.1,6.9,6.9
									v10.7C622.9,786.6,619.7,789.7,615.9,789.7z"/>
							</g>
						</g>
					</g>
					<g>
						<g>
							<g>
								<path fill="#404649" d="M457.7,657.2H434c-3.8,0-6.9-3.1-6.9-6.9v-10.7c0-3.8,3.1-6.9,6.9-6.9h23.8c3.8,0,6.9,3.1,6.9,6.9
									v10.7C464.7,654.1,461.6,657.2,457.7,657.2z"/>
							</g>
							<g>
								<path fill="#404649" d="M510.5,657.2h-23.8c-3.8,0-6.9-3.1-6.9-6.9v-10.7c0-3.8,3.1-6.9,6.9-6.9h23.8c3.8,0,6.9,3.1,6.9,6.9
									v10.7C517.4,654.1,514.3,657.2,510.5,657.2z"/>
							</g>
							<g>
								<path fill="#404649" d="M563.2,657.2h-23.8c-3.8,0-6.9-3.1-6.9-6.9v-10.7c0-3.8,3.1-6.9,6.9-6.9h23.8c3.8,0,6.9,3.1,6.9,6.9
									v10.7C570.1,654.1,567,657.2,563.2,657.2z"/>
							</g>
							<g>
								<path fill="#404649" d="M615.9,657.2h-23.8c-3.8,0-6.9-3.1-6.9-6.9v-10.7c0-3.8,3.1-6.9,6.9-6.9h23.8c3.8,0,6.9,3.1,6.9,6.9
									v10.7C622.9,654.1,619.7,657.2,615.9,657.2z"/>
							</g>
						</g>
						<g>
							<g>
								<path fill="#404649" d="M457.7,702H434c-3.8,0-6.9-3.1-6.9-6.9v-10.7c0-3.8,3.1-6.9,6.9-6.9h23.8c3.8,0,6.9,3.1,6.9,6.9
									v10.7C464.7,698.9,461.6,702,457.7,702z"/>
							</g>
							<g>
								<path fill="#404649" d="M510.5,702h-23.8c-3.8,0-6.9-3.1-6.9-6.9v-10.7c0-3.8,3.1-6.9,6.9-6.9h23.8c3.8,0,6.9,3.1,6.9,6.9
									v10.7C517.4,698.9,514.3,702,510.5,702z"/>
							</g>
							<g>
								<path fill="#404649" d="M563.2,702h-23.8c-3.8,0-6.9-3.1-6.9-6.9v-10.7c0-3.8,3.1-6.9,6.9-6.9h23.8c3.8,0,6.9,3.1,6.9,6.9
									v10.7C570.1,698.9,567,702,563.2,702z"/>
							</g>
							<g>
								<path fill="#404649" d="M615.9,702h-23.8c-3.8,0-6.9-3.1-6.9-6.9v-10.7c0-3.8,3.1-6.9,6.9-6.9h23.8c3.8,0,6.9,3.1,6.9,6.9
									v10.7C622.9,698.9,619.7,702,615.9,702z"/>
							</g>
						</g>
						<g>
							<g>
								<path fill="#404649" d="M457.7,746.9H434c-3.8,0-6.9-3.1-6.9-6.9v-10.7c0-3.8,3.1-6.9,6.9-6.9h23.8c3.8,0,6.9,3.1,6.9,6.9
									V740C464.7,743.8,461.6,746.9,457.7,746.9z"/>
							</g>
							<g>
								<path fill="#404649" d="M510.5,746.9h-23.8c-3.8,0-6.9-3.1-6.9-6.9v-10.7c0-3.8,3.1-6.9,6.9-6.9h23.8c3.8,0,6.9,3.1,6.9,6.9
									V740C517.4,743.8,514.3,746.9,510.5,746.9z"/>
							</g>
							<g>
								<path fill="#404649" d="M563.2,746.9h-23.8c-3.8,0-6.9-3.1-6.9-6.9v-10.7c0-3.8,3.1-6.9,6.9-6.9h23.8c3.8,0,6.9,3.1,6.9,6.9
									V740C570.1,743.8,567,746.9,563.2,746.9z"/>
							</g>
							<g>
								<path fill="#404649" d="M615.9,746.9h-23.8c-3.8,0-6.9-3.1-6.9-6.9v-10.7c0-3.8,3.1-6.9,6.9-6.9h23.8c3.8,0,6.9,3.1,6.9,6.9
									V740C622.9,743.8,619.7,746.9,615.9,746.9z"/>
							</g>
						</g>
						<g>
							<g>
								<path fill="#A0CC3A" d="M457.7,791.8H434c-3.8,0-6.9-3.1-6.9-6.9v-10.7c0-3.8,3.1-6.9,6.9-6.9h23.8c3.8,0,6.9,3.1,6.9,6.9
									v10.7C464.7,788.7,461.6,791.8,457.7,791.8z"/>
							</g>
							<g>
								<path fill="#E63525" d="M510.5,791.8h-23.8c-3.8,0-6.9-3.1-6.9-6.9v-10.7c0-3.8,3.1-6.9,6.9-6.9h23.8c3.8,0,6.9,3.1,6.9,6.9
									v10.7C517.4,788.7,514.3,791.8,510.5,791.8z"/>
							</g>
							<g>
								<path fill="#E8E9EA" d="M563.2,791.8h-23.8c-3.8,0-6.9-3.1-6.9-6.9v-10.7c0-3.8,3.1-6.9,6.9-6.9h23.8c3.8,0,6.9,3.1,6.9,6.9
									v10.7C570.1,788.7,567,791.8,563.2,791.8z"/>
							</g>
							<g>
								<path fill="#DF8727" d="M615.9,791.8h-23.8c-3.8,0-6.9-3.1-6.9-6.9v-10.7c0-3.8,3.1-6.9,6.9-6.9h23.8c3.8,0,6.9,3.1,6.9,6.9
									v10.7C622.9,788.7,619.7,791.8,615.9,791.8z"/>
							</g>
						</g>
					</g>
				</g>
				<g>
					<path fill="#BDC1C1" d="M623.9,614.6H426c-5.6,0-10.1-4.5-10.1-10.1V464.1c0-5.6,4.5-10.1,10.1-10.1h198
						c5.6,0,10.1,4.5,10.1,10.1v140.3C634,610,629.5,614.6,623.9,614.6z"/>
				</g>
				<g>
					<path fill="#404649" d="M623.9,617.7H426c-5.6,0-10.1-4.5-10.1-10.1V467.2c0-5.6,4.5-10.1,10.1-10.1h198
						c5.6,0,10.1,4.5,10.1,10.1v140.3C634,613.1,629.5,617.7,623.9,617.7z"/>
				</g>
				<g>
					<g>
						<path fill="#323531" d="M458.8,602.7h-27.5c-2.2,0-3.9-1.7-3.9-3.9v-6c0-2.2,1.7-3.9,3.9-3.9h27.5c2.2,0,3.9,1.7,3.9,3.9v6
							C462.7,600.9,461,602.7,458.8,602.7z"/>
					</g>
					<g>
						<path fill="#323531" d="M538.7,602.7h-27.5c-2.2,0-3.9-1.7-3.9-3.9v-6c0-2.2,1.7-3.9,3.9-3.9h27.5c2.2,0,3.9,1.7,3.9,3.9v6
							C542.6,600.9,540.9,602.7,538.7,602.7z"/>
					</g>
					<g>
						<path fill="#323531" d="M618.6,602.7h-27.5c-2.2,0-3.9-1.7-3.9-3.9v-6c0-2.2,1.7-3.9,3.9-3.9h27.5c2.2,0,3.9,1.7,3.9,3.9v6
							C622.5,600.9,620.8,602.7,618.6,602.7z"/>
					</g>
					<g>
						<path fill="#323531" d="M458.8,482.4h-27.5c-2.2,0-3.9-1.7-3.9-3.9v-6c0-2.2,1.7-3.9,3.9-3.9h27.5c2.2,0,3.9,1.7,3.9,3.9v6
							C462.7,480.7,461,482.4,458.8,482.4z"/>
					</g>
					<g>
						<path fill="#323531" d="M538.7,482.4h-27.5c-2.2,0-3.9-1.7-3.9-3.9v-6c0-2.2,1.7-3.9,3.9-3.9h27.5c2.2,0,3.9,1.7,3.9,3.9v6
							C542.6,480.7,540.9,482.4,538.7,482.4z"/>
					</g>
					<g>
						<path fill="#323531" d="M618.6,482.4h-27.5c-2.2,0-3.9-1.7-3.9-3.9v-6c0-2.2,1.7-3.9,3.9-3.9h27.5c2.2,0,3.9,1.7,3.9,3.9v6
							C622.5,480.7,620.8,482.4,618.6,482.4z"/>
					</g>
				</g>
				<g>
					<rect x="425.9" y="490.5" fill="#81C678" width="198.1" height="90.7"/>
				</g>
				<g>
					<path fill="#9BD091" d="M425.9,490.5v34.8c35,18.7,78.9,17,117.5,15.2c27.3-1.4,54.3-5.6,80.6-12.6v-37.5H425.9z"/>
				</g>
				<g>
					<rect x="450" y="268.6" fill="#E8E9EA" width="149.8" height="159.8"/>
				</g>
				<g>
					<rect x="450" y="406.4" fill="#C2C2C4" width="149.8" height="22"/>
				</g>
				<g>
					<path fill="#BDC1C1" d="M611.1,795.6H438.8c-6.3,0-11.5,5.1-11.5,11.5v7c63.6,17.3,128.6,17.6,195.2-0.2V807
						C622.5,800.7,617.4,795.6,611.1,795.6z"/>
				</g>
				<g>
					<path fill="#404649" d="M611.1,798.6H438.8c-6.3,0-11.5,5.1-11.5,11.5v7c63.6,17.3,128.6,17.6,195.2-0.2v-6.8
						C622.5,803.8,617.4,798.6,611.1,798.6z"/>
				</g>
				<g>
					<path fill="#DF8727" d="M647,781.5h-0.2V468.6h0.2c4.5,0,8.1,3.6,8.1,8.1v296.7C655,777.9,651.4,781.5,647,781.5z"/>
				</g>
				<g>
					<path fill="#DF8727" d="M404.8,791.8L404.8,791.8c-0.9,0-1.6-0.7-1.6-1.5V461.1c0-0.8,0.7-1.5,1.5-1.5h0.1
						c0.8,0,1.5,0.7,1.5,1.5v329.2C406.3,791.1,405.6,791.8,404.8,791.8z"/>
				</g>
				<g>
					<path fill="#DF8727" d="M645.2,791.8L645.2,791.8c-0.9,0-1.6-0.7-1.6-1.5V461.1c0-0.8,0.7-1.5,1.5-1.5h0.1
						c0.8,0,1.5,0.7,1.5,1.5v329.2C646.7,791.1,646,791.8,645.2,791.8z"/>
				</g>
			</g>
			<g>
				<path fill="#404649" d="M483.7,532.1v-21.9h5.5c3.6,0,5.5,2.1,5.5,6.2c0,1.8-0.5,3.1-1.4,4.1c-0.9,0.9-2.3,1.4-4.1,1.4h-2.3
					v10.2H483.7z M486.9,519.6h0.8c0.7,0,1.3,0,1.7-0.1c0.5-0.1,0.9-0.2,1.2-0.5c0.3-0.2,0.6-0.5,0.7-1c0.2-0.4,0.2-0.9,0.2-1.6
					c0-0.8-0.1-1.4-0.2-1.9c-0.1-0.5-0.3-0.9-0.6-1.2c-0.3-0.3-0.7-0.5-1.2-0.6c-0.5-0.1-1.1-0.2-1.9-0.2h-0.8V519.6z"/>
				<path fill="#404649" d="M494.3,532.1l4.7-21.9h3.1l4.7,21.9h-3.1l-1.2-5.5h-3.9l-1.2,5.5H494.3z M499,524.3h3.1l-1.6-9.4
					L499,524.3z"/>
				<path fill="#404649" d="M510.7,532.1v-7l-4.7-14.8h3.1l3.1,10.9l3.1-10.9h3.1l-4.7,14.8v7H510.7z"/>
				<path fill="#404649" d="M520.1,532.1v-21.9h4.3l3.1,16.7l3.1-16.7h4.3v21.9h-3.1v-17.3l-3.1,17.3h-2.3l-3.1-17.3v17.3H520.1z"/>
				<path fill="#404649" d="M538,532.1v-21.9h8.6v2.3h-5.5v7h3.9v2.3h-3.9v7.8h5.5v2.3H538z"/>
				<path fill="#404649" d="M548.6,532.1v-21.9h2.3l5.5,13.5v-13.5h3.1v21.9h-2.2l-5.6-14.5v14.5H548.6z"/>
				<path fill="#404649" d="M564.9,532.1V513H561v-2.8H572v2.8h-3.9v19.1H564.9z"/>
				<path fill="#404649" d="M475.6,562.1l4.7-21.9h3.1l4.7,21.9H485l-1.2-5.5h-3.9l-1.2,5.5H475.6z M480.3,554.2h3.1l-1.6-9.4
					L480.3,554.2z"/>
				<path fill="#404649" d="M489.8,562.1v-21.9h5.5c3.6,0,5.5,2.1,5.5,6.2c0,1.8-0.5,3.1-1.4,4.1c-0.9,0.9-2.3,1.4-4.1,1.4H493v10.2
					H489.8z M493,549.6h0.8c0.7,0,1.3,0,1.7-0.1c0.5-0.1,0.9-0.2,1.2-0.5c0.3-0.2,0.6-0.5,0.7-1c0.2-0.4,0.2-0.9,0.2-1.6
					c0-0.8-0.1-1.4-0.2-1.9c-0.1-0.5-0.3-0.9-0.6-1.2c-0.3-0.3-0.7-0.5-1.2-0.6c-0.5-0.1-1.1-0.2-1.9-0.2H493V549.6z"/>
				<path fill="#404649" d="M502.5,562.1v-21.9h5.5c3.6,0,5.5,2.1,5.5,6.2c0,1.8-0.5,3.1-1.4,4.1c-0.9,0.9-2.3,1.4-4.1,1.4h-2.3
					v10.2H502.5z M505.7,549.6h0.8c0.7,0,1.3,0,1.7-0.1c0.5-0.1,0.9-0.2,1.2-0.5c0.3-0.2,0.6-0.5,0.7-1c0.2-0.4,0.2-0.9,0.2-1.6
					c0-0.8-0.1-1.4-0.2-1.9c-0.1-0.5-0.3-0.9-0.6-1.2c-0.3-0.3-0.7-0.5-1.2-0.6c-0.5-0.1-1.1-0.2-1.9-0.2h-0.8V549.6z"/>
				<path fill="#404649" d="M515.3,562.1v-21.9h3.9c2.3,0,4.1,0.5,5.3,1.4c1.2,0.9,1.8,2.4,1.8,4.5c0,1.3-0.2,2.4-0.7,3.3
					c-0.5,0.9-1.1,1.5-2,1.8l3.5,10.9h-3.1l-3.1-10.2h-2.3v10.2H515.3z M518.4,549.6h0.8c1.3,0,2.3-0.3,2.9-0.8c0.7-0.5,1-1.4,1-2.7
					s-0.3-2.1-1-2.7c-0.7-0.5-1.6-0.8-2.9-0.8h-0.8V549.6z"/>
				<path fill="#404649" d="M534.4,562.3c-1.1,0-2-0.2-2.8-0.5s-1.4-0.8-1.9-1.5s-0.8-1.4-1-2.3c-0.2-0.9-0.3-1.9-0.3-3v-7.9
					c0-1.1,0.1-2.1,0.3-3c0.2-0.9,0.5-1.6,1-2.2s1.1-1.1,1.9-1.4s1.7-0.5,2.8-0.5c2.1,0,3.7,0.6,4.6,1.8c0.9,1.2,1.4,3,1.4,5.3v7.9
					c0,1.1-0.1,2.1-0.3,3c-0.2,0.9-0.6,1.6-1,2.3c-0.5,0.6-1.1,1.1-1.9,1.5C536.4,562.1,535.5,562.3,534.4,562.3z M532.1,558.7
					c0.4,0.7,1.2,1,2.3,1c1.1,0,1.9-0.3,2.3-1c0.4-0.7,0.6-1.6,0.6-2.9v-9.5c0-1.3-0.2-2.2-0.6-2.8c-0.4-0.6-1.2-0.9-2.3-0.9
					s-1.9,0.3-2.3,0.9c-0.4,0.6-0.6,1.6-0.6,2.8v9.5C531.5,557.1,531.7,558.1,532.1,558.7z"/>
				<path fill="#404649" d="M546.4,562.1l-4.7-21.9h3.1l2.3,11.7l0.8,5.5l0.8-5.5l2.3-11.7h3.1l-4.7,21.9H546.4z"/>
				<path fill="#404649" d="M556,562.1v-21.9h8.6v2.3h-5.5v7h3.9v2.3h-3.9v7.8h5.5v2.3H556z"/>
				<path fill="#404649" d="M566.5,562.1v-21.9h4.8c2.3,0,3.9,0.5,4.8,1.4c0.9,0.9,1.4,2.6,1.4,4.8v8.6c0,2.4-0.5,4.2-1.4,5.3
					c-1,1.1-2.6,1.7-4.8,1.7H566.5z M569.6,559.7h1.7c0.5,0,1,0,1.3-0.1s0.7-0.3,0.9-0.5c0.2-0.2,0.4-0.5,0.5-0.7
					c0.1-0.2,0.2-0.6,0.3-1c0.1-0.5,0.1-0.9,0.1-1.2c0-0.3,0-0.8,0-1.4c0-0.2,0-0.4,0-0.5v-7c0-0.4,0-0.7,0-1c0-0.2,0-0.5,0-0.8
					c0-0.3-0.1-0.6-0.1-0.8s-0.1-0.4-0.2-0.6c-0.1-0.2-0.2-0.4-0.3-0.5c-0.1-0.1-0.2-0.3-0.4-0.4c-0.2-0.1-0.3-0.2-0.5-0.3
					c-0.2-0.1-0.4-0.1-0.7-0.2c-0.3,0-0.6-0.1-0.9-0.1h-1.7V559.7z"/>
			</g>
		</g>
	</g>
</g>
</svg>
